<svg xmlns="http://www.w3.org/2000/svg" width="541" height="335" viewBox="0 0 541 335">
<g>
<path d="M 0.00 0.00 L 541.00 0.00 L 541.00 335.00 L 0.00 335.00 ZM 197.74 292.40 C198.14,292.81 205.00,292.99 212.99,292.82 C226.86,292.51 227.69,292.38 231.72,289.76 C238.93,285.07 239.45,283.22 239.83,261.00 C240.19,239.81 239.63,236.09 235.27,230.91 C230.97,225.80 227.76,225.00 211.53,225.00 L 197.00 225.00 L 197.00 258.33 C197.00,276.67 197.33,292.00 197.74,292.40 ZM 399.12 290.83 C407.80,295.13 422.96,293.31 428.10,287.36 C432.55,282.21 433.00,279.54 432.98,258.60 C432.95,235.93 432.13,232.37 425.87,227.90 C422.95,225.82 421.16,225.46 412.50,225.18 C403.52,224.90 402.04,225.11 398.00,227.26 C395.18,228.76 392.67,231.11 391.27,233.58 C389.15,237.29 389.03,238.62 389.02,258.55 L 389.00 279.61 L 391.87 284.14 C393.74,287.08 396.28,289.42 399.12,290.83 ZM 65.18 156.72 C66.17,157.91 68.88,158.12 79.45,157.81 C94.34,157.39 99.16,155.72 102.90,149.66 C104.84,146.52 105.00,144.83 105.00,126.94 C105.00,108.56 104.89,107.46 102.75,104.31 C101.51,102.49 98.57,100.09 96.20,98.97 C92.42,97.19 90.25,96.98 78.20,97.22 L 64.50 97.50 L 64.23 126.38 C64.04,147.91 64.28,155.63 65.18,156.72 ZM 262.67 157.33 C263.03,157.70 269.00,157.99 275.92,157.98 C292.68,157.95 297.70,155.77 301.36,146.96 C302.49,144.25 302.72,139.68 302.39,125.79 C302.03,110.00 301.75,107.69 299.87,104.50 C296.19,98.26 292.17,97.00 276.04,97.00 L 262.00 97.00 L 262.00 126.83 C262.00,143.24 262.30,156.97 262.67,157.33 ZM 219.35 156.07 C224.06,158.21 236.04,158.69 240.68,156.93 C244.48,155.50 247.80,152.27 250.10,147.79 C251.75,144.57 252.00,141.86 251.98,127.29 C251.95,110.90 251.89,110.38 249.23,105.59 C245.42,98.74 241.74,97.00 231.08,97.00 C221.06,97.00 215.23,99.28 212.04,104.44 C210.17,107.46 210.00,109.36 210.00,127.14 C210.00,146.38 210.02,146.57 212.60,150.36 C214.10,152.57 216.96,154.98 219.35,156.07 ZM 296.23 291.77 C296.94,292.63 299.09,292.99 302.41,292.80 L 307.50 292.50 L 308.50 270.50 L 318.00 269.97 C328.16,269.40 329.99,268.76 334.19,264.34 C338.08,260.22 339.00,256.93 338.98,247.18 C338.95,236.76 337.00,231.63 331.44,227.38 C327.71,224.54 327.45,224.50 312.41,224.16 C298.15,223.85 297.10,223.95 296.13,225.76 C294.66,228.51 294.75,289.99 296.23,291.77 ZM 20.50 61.00 C20.91,61.67 105.66,61.92 273.30,61.75 C512.55,61.51 525.49,61.41 525.81,59.75 C526.13,58.09 513.58,58.00 273.63,58.00 C106.37,58.00 20.91,58.34 20.50,59.00 C20.16,59.55 20.16,60.45 20.50,61.00 ZM 251.24 292.17 C252.70,293.10 284.06,293.30 286.42,292.39 C288.05,291.77 288.45,288.29 287.37,284.25 C286.79,282.07 286.38,282.00 274.38,282.00 L 262.00 282.00 L 262.00 264.07 L 272.75 263.78 L 283.50 263.50 L 283.80 258.28 L 284.10 253.07 L 273.30 252.78 L 262.50 252.50 L 261.92 236.00 L 273.84 236.00 C287.64,236.00 288.77,235.44 287.32,229.27 L 286.42 225.50 L 250.50 225.50 L 250.24 258.43 C250.03,284.11 250.25,291.54 251.24,292.17 ZM 116.29 156.77 C117.04,157.74 121.46,157.98 134.39,157.77 L 151.50 157.50 L 152.11 148.06 L 126.50 147.50 L 126.50 132.50 L 147.50 131.50 L 148.11 122.00 L 138.30 121.98 C132.91,121.98 127.91,121.60 127.20,121.14 C126.29,120.57 125.99,118.36 126.20,113.91 L 126.50 107.50 L 151.50 106.50 L 152.11 97.00 L 134.12 97.00 C117.85,97.00 116.09,97.17 115.63,98.75 C114.67,102.08 115.28,155.47 116.29,156.77 ZM 313.57 157.11 C313.87,157.60 321.46,158.00 330.44,158.00 C348.54,158.00 349.38,157.72 348.82,151.82 L 348.50 148.50 L 338.00 148.25 C328.62,148.03 325.04,148.09 323.75,146.40 C322.96,145.36 323.03,143.65 323.16,140.82 C323.17,140.47 323.19,140.10 323.21,139.72 L 323.50 132.50 L 344.50 131.50 L 344.80 126.78 L 345.11 122.07 L 334.30 121.78 L 323.50 121.50 L 323.21 114.28 L 322.91 107.06 L 335.71 106.78 L 348.50 106.50 L 348.50 97.50 L 330.75 97.23 L 313.00 96.95 L 312.93 99.73 C312.63,111.29 313.13,156.40 313.57,157.11 ZM 64.43 232.70 C65.22,233.14 73.88,233.50 83.68,233.50 L 101.50 233.50 L 101.80 228.75 C102.06,224.76 101.82,223.98 100.30,223.89 C99.31,223.83 93.60,223.62 87.62,223.42 C81.63,223.23 76.49,222.82 76.20,222.53 C74.78,221.11 79.05,216.86 88.31,210.47 C100.07,202.37 101.88,199.70 101.95,190.40 C102.01,183.19 99.50,178.56 93.98,175.69 C89.23,173.22 74.86,173.71 70.65,176.49 C66.46,179.24 62.82,185.51 63.19,189.32 C63.48,192.33 63.75,192.52 68.01,192.79 C72.43,193.08 72.55,193.01 74.51,188.79 C76.46,184.60 76.62,184.49 81.86,184.19 C88.74,183.80 91.00,185.60 91.00,191.48 C91.00,196.30 90.41,196.96 78.50,205.24 C74.10,208.30 69.52,211.86 68.32,213.15 C63.88,217.94 61.29,230.94 64.43,232.70 ZM 171.50 156.80 C173.15,157.37 177.67,157.88 181.54,157.92 C193.63,158.06 199.85,153.34 201.53,142.74 L 202.12 139.00 L 196.56 139.00 C191.51,139.00 191.00,139.20 191.00,141.19 C191.00,142.39 190.02,144.41 188.83,145.69 C185.63,149.09 176.92,149.01 173.45,145.55 C171.06,143.15 171.00,142.71 171.00,127.68 C171.00,113.60 171.18,112.04 173.07,109.63 C174.92,107.29 175.83,107.00 181.45,107.00 C188.45,107.00 189.83,107.91 190.92,113.26 C191.56,116.39 191.75,116.50 196.54,116.50 C201.25,116.50 201.52,116.36 201.83,113.64 C202.22,110.21 200.44,105.37 197.59,102.12 C194.30,98.38 189.81,97.00 180.87,97.00 C173.85,97.00 172.04,97.37 168.25,99.60 C161.06,103.81 160.05,107.21 160.02,127.28 C160.00,145.65 160.63,148.56 165.63,153.13 C167.21,154.57 169.85,156.22 171.50,156.80 ZM 455.63 291.47 C456.11,292.74 457.38,293.03 461.38,292.80 L 466.50 292.50 L 467.02 278.00 C467.51,264.15 467.68,263.18 470.86,256.50 C476.37,244.91 483.87,226.20 483.25,225.58 C482.13,224.47 473.24,225.01 472.30,226.25 C471.77,226.94 469.17,232.68 466.51,239.00 C463.85,245.32 461.35,250.87 460.97,251.31 C460.38,252.01 456.97,244.59 450.61,228.75 C449.12,225.05 449.03,225.00 443.55,225.00 C439.07,225.00 438.00,225.32 438.00,226.64 C438.00,227.54 440.66,234.18 443.92,241.39 C451.52,258.25 453.91,263.40 454.66,268.78 C455.00,271.24 455.00,273.75 455.00,277.45 C455.00,277.75 455.00,278.07 455.00,278.39 C455.00,284.68 455.28,290.57 455.63,291.47 ZM 347.45 291.74 C347.82,292.68 352.18,293.00 364.85,293.00 C383.81,293.00 384.35,292.81 383.81,286.32 L 383.50 282.50 L 371.27 282.22 L 359.03 281.94 L 358.77 253.72 L 358.50 225.50 L 347.50 225.50 L 347.24 257.99 C347.09,275.86 347.19,291.05 347.45,291.74 ZM 225.93 279.37 C224.03,281.78 223.25,282.00 216.53,282.00 C210.78,282.00 209.08,281.66 208.61,280.42 C208.27,279.55 208.00,269.20 208.00,257.42 L 208.00 236.00 L 215.83 236.00 C222.71,236.00 223.91,236.28 225.83,238.31 C227.89,240.51 228.00,241.52 228.00,258.68 C228.00,275.43 227.85,276.92 225.93,279.37 ZM 418.93 279.37 C417.12,281.67 416.13,282.00 411.10,282.00 C406.38,282.00 404.96,281.58 403.17,279.69 C401.10,277.48 401.00,276.50 401.00,258.34 L 401.00 257.38 C401.00,243.98 401.00,238.98 403.42,237.11 C404.86,236.00 407.16,236.00 410.83,236.00 L 411.27 236.00 C420.94,236.00 421.00,236.15 421.00,258.59 C421.00,275.43 420.85,276.92 418.93,279.37 ZM 64.20 308.80 C64.86,309.46 65.61,310.00 65.88,310.00 C66.14,310.00 71.34,306.92 77.43,303.17 C83.52,299.41 90.75,295.07 93.50,293.53 C100.96,289.35 102.00,288.16 102.00,283.92 C102.00,280.17 101.96,280.13 89.11,272.33 C72.53,262.26 66.19,258.99 64.53,259.63 C62.66,260.35 61.74,264.65 62.97,266.95 C63.86,268.60 77.93,277.66 86.25,281.93 C87.76,282.70 89.00,283.66 89.00,284.06 C89.00,284.45 83.15,288.29 76.00,292.58 C63.17,300.27 63.00,300.42 63.00,303.99 C63.00,305.97 63.54,308.14 64.20,308.80 ZM 92.08 145.08 C89.49,147.67 88.49,147.99 83.33,147.92 C80.12,147.88 76.94,147.62 76.25,147.34 C75.31,146.96 75.00,141.91 75.00,126.92 L 75.00 107.00 L 82.55 107.00 C89.43,107.00 90.31,107.23 92.55,109.65 C94.92,112.21 95.00,112.76 95.00,127.22 L 95.00 142.15 ZM 237.87 146.13 C235.16,148.84 225.76,148.76 223.00,146.00 C221.90,144.90 221.00,143.32 221.00,142.49 C221.00,141.66 220.76,134.54 220.46,126.67 C219.95,113.19 220.04,112.22 222.03,109.69 C223.92,107.29 224.80,107.00 230.32,107.02 C240.87,107.04 241.43,108.24 240.47,128.75 C239.85,141.96 239.47,144.53 237.87,146.13 ZM 288.60 145.67 C286.37,147.58 284.75,148.00 279.50,148.00 C275.99,148.00 272.88,147.62 272.59,147.15 C272.31,146.69 272.24,137.57 272.45,126.90 L 272.83 107.50 L 280.50 107.50 C287.48,107.50 288.36,107.73 290.21,110.00 C292.11,112.33 292.21,113.53 291.78,127.92 C291.32,143.19 291.29,143.35 288.60,145.67 ZM 111.04 310.07 C112.01,311.88 113.33,312.00 132.91,312.00 C155.96,312.00 156.40,311.88 155.82,305.82 L 155.50 302.50 L 134.13 302.23 C119.20,302.04 112.34,302.30 111.38,303.10 C109.74,304.46 109.60,307.38 111.04,310.07 ZM 72.21 38.87 C77.10,40.28 78.19,40.18 81.77,38.00 C85.45,35.76 87.00,32.58 87.00,27.30 C87.00,22.57 81.42,17.00 76.68,17.00 C72.58,17.01 67.22,20.29 65.98,23.57 C63.55,29.95 66.51,37.23 72.21,38.87 ZM 324.69 255.83 C322.75,257.64 321.19,258.00 315.15,258.00 L 307.93 258.00 L 308.22 247.25 L 308.50 236.50 L 315.87 236.20 C325.87,235.80 327.00,236.85 327.00,246.48 C327.00,252.68 326.69,253.94 324.69,255.83 ZM 34.79 39.22 C47.23,40.79 53.53,28.06 44.31,19.97 C41.14,17.18 40.16,16.85 36.59,17.33 C27.80,18.51 23.80,29.04 29.54,35.86 C30.93,37.52 33.29,39.03 34.79,39.22 ZM 114.00 39.35 C116.43,40.15 116.95,40.07 119.99,38.51 C130.01,33.32 127.12,18.00 116.11,18.00 C110.46,18.00 105.00,22.74 105.00,27.65 C105.00,33.65 107.82,37.31 114.00,39.35 ZM 0.00 1.00 C0.00,1.55 0.20,2.00 0.44,2.00 C0.68,2.00 1.16,1.55 1.50,1.00 C1.84,0.45 1.64,0.00 1.06,0.00 C0.48,0.00 0.00,0.45 0.00,1.00 Z" fill="rgb(22,24,26)"/>
<path d="M 65.18 156.72 C64.28,155.63 64.04,147.91 64.23,126.38 L 64.50 97.50 L 78.20 97.22 C90.25,96.98 92.42,97.19 96.20,98.97 C98.57,100.09 101.51,102.49 102.75,104.31 C104.89,107.46 105.00,108.56 105.00,126.94 C105.00,144.83 104.84,146.52 102.90,149.66 C99.16,155.72 94.34,157.39 79.45,157.81 C68.88,158.12 66.17,157.91 65.18,156.72 ZM 262.67 157.33 C262.30,156.97 262.00,143.24 262.00,126.83 L 262.00 97.00 L 276.04 97.00 C292.17,97.00 296.19,98.26 299.87,104.50 C301.75,107.69 302.03,110.00 302.39,125.79 C302.72,139.68 302.49,144.25 301.36,146.96 C297.70,155.77 292.68,157.95 275.92,157.98 C269.00,157.99 263.03,157.70 262.67,157.33 ZM 219.35 156.07 C216.96,154.98 214.10,152.57 212.60,150.36 C210.02,146.57 210.00,146.38 210.00,127.14 C210.00,109.36 210.17,107.46 212.04,104.44 C215.23,99.28 221.06,97.00 231.08,97.00 C241.74,97.00 245.42,98.74 249.23,105.59 C251.89,110.38 251.95,110.90 251.98,127.29 C252.00,141.86 251.75,144.57 250.10,147.79 C247.80,152.27 244.48,155.50 240.68,156.93 C236.04,158.69 224.06,158.21 219.35,156.07 ZM 116.29 156.77 C115.28,155.47 114.67,102.08 115.63,98.75 C116.09,97.17 117.85,97.00 134.12,97.00 L 152.11 97.00 L 151.50 106.50 L 126.50 107.50 L 126.20 113.91 C125.99,118.36 126.29,120.57 127.20,121.14 C127.91,121.60 132.91,121.98 138.30,121.98 L 148.11 122.00 L 147.50 131.50 L 126.50 132.50 L 126.50 147.50 L 152.11 148.06 L 151.50 157.50 L 134.39 157.77 C121.46,157.98 117.04,157.74 116.29,156.77 ZM 313.57 157.11 C313.13,156.40 312.63,111.29 312.93,99.73 L 313.00 96.95 L 330.75 97.23 L 348.50 97.50 L 348.50 106.50 L 335.71 106.78 L 322.91 107.06 L 323.21 114.28 L 323.50 121.50 L 334.30 121.78 L 345.11 122.07 L 344.80 126.78 L 344.50 131.50 L 323.50 132.50 L 323.21 139.72 C323.19,140.10 323.17,140.47 323.16,140.82 C323.03,143.65 322.96,145.36 323.75,146.40 C325.04,148.09 328.62,148.03 338.00,148.25 L 348.50 148.50 L 348.82 151.82 C349.38,157.72 348.54,158.00 330.44,158.00 C321.46,158.00 313.87,157.60 313.57,157.11 ZM 171.50 156.80 C169.85,156.22 167.21,154.57 165.63,153.13 C160.63,148.56 160.00,145.65 160.02,127.28 C160.05,107.21 161.06,103.81 168.25,99.60 C172.04,97.37 173.85,97.00 180.87,97.00 C189.81,97.00 194.30,98.38 197.59,102.12 C200.44,105.37 202.22,110.21 201.83,113.64 C201.52,116.36 201.25,116.50 196.54,116.50 C191.75,116.50 191.56,116.39 190.92,113.26 C189.83,107.91 188.45,107.00 181.45,107.00 C175.83,107.00 174.92,107.29 173.07,109.63 C171.18,112.04 171.00,113.60 171.00,127.68 C171.00,142.71 171.06,143.15 173.45,145.55 C176.92,149.01 185.63,149.09 188.83,145.69 C190.02,144.41 191.00,142.39 191.00,141.19 C191.00,139.20 191.51,139.00 196.56,139.00 L 202.12 139.00 L 201.53 142.74 C199.85,153.34 193.63,158.06 181.54,157.92 C177.67,157.88 173.15,157.37 171.50,156.80 ZM 92.08 145.08 L 95.00 142.15 L 95.00 127.22 C95.00,112.76 94.92,112.21 92.55,109.65 C90.31,107.23 89.43,107.00 82.55,107.00 L 75.00 107.00 L 75.00 126.92 C75.00,141.91 75.31,146.96 76.25,147.34 C76.94,147.62 80.12,147.88 83.33,147.92 C88.49,147.99 89.49,147.67 92.08,145.08 ZM 237.87 146.13 C239.47,144.53 239.85,141.96 240.47,128.75 C241.43,108.24 240.87,107.04 230.32,107.02 C224.80,107.00 223.92,107.29 222.03,109.69 C220.04,112.22 219.95,113.19 220.46,126.67 C220.76,134.54 221.00,141.66 221.00,142.49 C221.00,143.32 221.90,144.90 223.00,146.00 C225.76,148.76 235.16,148.84 237.87,146.13 ZM 288.60 145.67 C291.29,143.35 291.32,143.19 291.78,127.92 C292.21,113.53 292.11,112.33 290.21,110.00 C288.36,107.73 287.48,107.50 280.50,107.50 L 272.83 107.50 L 272.45 126.90 C272.24,137.57 272.31,146.69 272.59,147.15 C272.88,147.62 275.99,148.00 279.50,148.00 C284.75,148.00 286.37,147.58 288.60,145.67 ZM 114.00 39.35 C107.82,37.31 105.00,33.65 105.00,27.65 C105.00,22.74 110.46,18.00 116.11,18.00 C127.12,18.00 130.01,33.32 119.99,38.51 C116.95,40.07 116.43,40.15 114.00,39.35 Z" fill="rgb(39,180,136)"/>
<path d="M 296.23 291.77 C294.75,289.99 294.66,228.51 296.13,225.76 C297.10,223.95 298.15,223.85 312.41,224.16 C327.45,224.50 327.71,224.54 331.44,227.38 C337.00,231.63 338.95,236.76 338.98,247.18 C339.00,256.93 338.08,260.22 334.19,264.34 C329.99,268.76 328.16,269.40 318.00,269.97 L 308.50 270.50 L 307.50 292.50 L 302.41 292.80 C299.09,292.99 296.94,292.63 296.23,291.77 ZM 297.00 224.79 L 297.00 292.00 L 307.00 292.00 L 307.00 286.65 C307.00,283.70 307.28,278.57 307.63,275.24 L 308.27 269.18 L 318.06 268.84 C326.05,268.56 328.37,268.12 330.62,266.44 C336.21,262.26 337.23,259.84 337.77,249.58 C338.38,237.90 336.70,232.40 331.24,228.23 C327.76,225.58 327.23,225.49 312.33,225.14 ZM 20.50 61.00 C20.16,60.45 20.16,59.55 20.50,59.00 C20.91,58.34 106.37,58.00 273.63,58.00 C513.58,58.00 526.13,58.09 525.81,59.75 C525.49,61.41 512.55,61.51 273.30,61.75 C105.66,61.92 20.91,61.67 20.50,61.00 ZM 72.21 38.87 C66.51,37.23 63.55,29.95 65.98,23.57 C67.22,20.29 72.58,17.01 76.68,17.00 C81.42,17.00 87.00,22.57 87.00,27.30 C87.00,32.58 85.45,35.76 81.77,38.00 C78.19,40.18 77.10,40.28 72.21,38.87 ZM 34.79 39.22 C33.29,39.03 30.93,37.52 29.54,35.86 C23.80,29.04 27.80,18.51 36.59,17.33 C40.16,16.85 41.14,17.18 44.31,19.97 C53.53,28.06 47.23,40.79 34.79,39.22 ZM 73.55 22.41 C75.49,23.83 76.09,23.85 79.80,22.61 C81.20,22.13 82.76,22.31 83.80,23.05 C84.73,23.71 84.03,22.85 82.23,21.13 C78.71,17.76 74.77,17.10 71.75,19.39 C70.00,20.72 69.24,22.59 70.85,21.59 C71.32,21.30 72.54,21.67 73.55,22.41 ZM 324.69 255.83 C325.45,255.11 325.96,254.49 326.31,253.65 C325.69,256.27 324.67,257.91 323.28,258.45 C320.32,259.58 311.43,259.96 309.27,259.03 C307.13,258.12 307.07,257.72 307.61,248.29 C307.88,243.54 308.24,239.12 308.47,237.67 L 308.22 247.25 L 307.93 258.00 L 315.15 258.00 C321.19,258.00 322.75,257.64 324.69,255.83 ZM 70.22 36.44 C73.38,38.66 79.21,38.41 82.37,35.93 C83.81,34.79 85.00,33.46 85.00,32.98 C85.00,32.49 83.77,33.23 82.27,34.63 C80.18,36.57 78.86,37.02 76.64,36.58 C75.05,36.26 73.16,36.00 72.45,36.00 C71.73,36.00 70.44,35.29 69.57,34.43 C68.71,33.56 68.00,33.31 68.00,33.87 C68.00,34.43 69.00,35.59 70.22,36.44 ZM 321.77 236.28 C320.27,236.09 318.34,236.10 315.87,236.20 L 309.95 236.44 C311.20,236.14 313.30,236.00 316.31,236.00 C318.57,236.00 320.36,236.06 321.77,236.28 ZM 327.00 246.36 C327.00,244.51 326.95,242.97 326.81,241.71 C326.95,242.95 327.00,244.46 327.00,246.28 Z" fill="rgb(89,90,82)"/>
<path d="M 111.04 310.07 C109.60,307.38 109.74,304.46 111.38,303.10 C112.34,302.30 119.20,302.04 134.13,302.23 L 155.50 302.50 L 155.82 305.82 C156.40,311.88 155.96,312.00 132.91,312.00 C113.33,312.00 112.01,311.88 111.04,310.07 ZM 64.20 308.80 C63.54,308.14 63.00,305.97 63.00,303.99 C63.00,300.42 63.17,300.27 76.00,292.58 C83.15,288.29 89.00,284.45 89.00,284.06 C89.00,283.66 87.76,282.70 86.25,281.93 C77.93,277.66 63.86,268.60 62.97,266.95 C61.74,264.65 62.66,260.35 64.53,259.63 C66.19,258.99 72.53,262.26 89.11,272.33 C101.96,280.13 102.00,280.17 102.00,283.92 C102.00,288.16 100.96,289.35 93.50,293.53 C90.75,295.07 83.52,299.41 77.43,303.17 C71.34,306.92 66.14,310.00 65.88,310.00 C65.61,310.00 64.86,309.46 64.20,308.80 ZM 197.74 292.40 C197.33,292.00 197.00,276.67 197.00,258.33 L 197.00 225.00 L 211.53 225.00 C227.76,225.00 230.97,225.80 235.27,230.91 C239.63,236.09 240.19,239.81 239.83,261.00 C239.45,283.22 238.93,285.07 231.72,289.76 C227.69,292.38 226.86,292.51 212.99,292.82 C205.00,292.99 198.14,292.81 197.74,292.40 ZM 225.93 279.37 C227.85,276.92 228.00,275.43 228.00,258.68 C228.00,241.52 227.89,240.51 225.83,238.31 C223.91,236.28 222.71,236.00 215.83,236.00 L 208.00 236.00 L 208.00 257.42 C208.00,269.20 208.27,279.55 208.61,280.42 C209.08,281.66 210.78,282.00 216.53,282.00 C223.25,282.00 224.03,281.78 225.93,279.37 ZM 251.24 292.17 C250.25,291.54 250.03,284.11 250.24,258.43 L 250.50 225.50 L 268.46 225.50 L 286.42 225.50 L 287.32 229.27 C288.77,235.44 287.64,236.00 273.84,236.00 L 261.92 236.00 L 262.21 244.25 L 262.50 252.50 L 273.30 252.78 L 284.10 253.07 L 283.80 258.28 L 283.50 263.50 L 272.75 263.78 L 262.00 264.07 L 262.00 273.03 L 262.00 282.00 L 274.38 282.00 C286.38,282.00 286.79,282.07 287.37,284.25 C288.45,288.29 288.05,291.77 286.42,292.39 C284.06,293.30 252.70,293.10 251.24,292.17 ZM 347.45 291.74 C347.19,291.05 347.09,275.86 347.24,257.99 L 347.50 225.50 L 353.00 225.50 L 358.50 225.50 L 358.77 253.72 L 359.03 281.94 L 371.27 282.22 L 383.50 282.50 L 383.81 286.32 C384.35,292.81 383.81,293.00 364.85,293.00 C352.18,293.00 347.82,292.68 347.45,291.74 ZM 399.12 290.83 C396.28,289.42 393.74,287.08 391.87,284.14 L 389.00 279.61 L 389.02 258.55 C389.03,238.62 389.15,237.29 391.27,233.58 C392.67,231.11 395.18,228.76 398.00,227.26 C402.04,225.11 403.52,224.90 412.50,225.18 C421.16,225.46 422.95,225.82 425.87,227.90 C432.13,232.37 432.95,235.93 432.98,258.60 C433.00,279.54 432.55,282.21 428.10,287.36 C422.96,293.31 407.80,295.13 399.12,290.83 ZM 418.93 279.37 C420.85,276.92 421.00,275.43 421.00,258.59 C421.00,236.15 420.94,236.00 411.27,236.00 C400.85,236.00 401.00,235.67 401.00,258.34 C401.00,276.50 401.10,277.48 403.17,279.69 C404.96,281.58 406.38,282.00 411.10,282.00 C416.13,282.00 417.12,281.67 418.93,279.37 ZM 455.63 291.47 C455.28,290.57 455.00,284.68 455.00,278.39 C455.00,265.63 455.29,266.61 443.92,241.39 C440.66,234.18 438.00,227.54 438.00,226.64 C438.00,225.32 439.07,225.00 443.55,225.00 C449.03,225.00 449.12,225.05 450.61,228.75 C456.97,244.59 460.38,252.01 460.97,251.31 C461.35,250.87 463.85,245.32 466.51,239.00 C469.17,232.68 471.77,226.94 472.30,226.25 C473.24,225.01 482.13,224.47 483.25,225.58 C483.87,226.20 476.37,244.91 470.86,256.50 C467.68,263.18 467.51,264.15 467.02,278.00 L 466.50 292.50 L 461.38 292.80 C457.38,293.03 456.11,292.74 455.63,291.47 ZM 297.00 258.39 L 297.00 224.79 L 312.33 225.14 C327.23,225.49 327.76,225.58 331.24,228.23 C336.70,232.40 338.38,237.90 337.77,249.58 C337.23,259.84 336.21,262.26 330.62,266.44 C328.37,268.12 326.05,268.56 318.06,268.84 L 308.27 269.18 L 307.63 275.24 C307.28,278.57 307.00,283.70 307.00,286.65 L 307.00 292.00 L 302.00 292.00 L 297.00 292.00 L 297.00 258.39 ZM 323.28 258.45 C325.70,257.52 327.00,253.26 327.00,246.28 C327.00,237.11 325.85,236.00 316.31,236.00 C311.28,236.00 308.81,236.40 308.55,237.25 C308.34,237.94 307.92,242.91 307.61,248.29 C307.07,257.72 307.13,258.12 309.27,259.03 C311.43,259.96 320.32,259.58 323.28,258.45 ZM 64.43 232.70 C61.29,230.94 63.88,217.94 68.32,213.15 C69.52,211.86 74.10,208.30 78.50,205.24 C90.41,196.96 91.00,196.30 91.00,191.48 C91.00,185.60 88.74,183.80 81.86,184.19 C76.62,184.49 76.46,184.60 74.51,188.79 C72.55,193.01 72.43,193.08 68.01,192.79 C63.75,192.52 63.48,192.33 63.19,189.32 C62.82,185.51 66.46,179.24 70.65,176.49 C74.86,173.71 89.23,173.22 93.98,175.69 C99.50,178.56 102.01,183.19 101.95,190.40 C101.88,199.70 100.07,202.37 88.31,210.47 C79.05,216.86 74.78,221.11 76.20,222.53 C76.49,222.82 81.63,223.23 87.62,223.42 C93.60,223.62 99.31,223.83 100.30,223.89 C101.82,223.98 102.06,224.76 101.80,228.75 L 101.50 233.50 L 83.68 233.50 C73.88,233.50 65.22,233.14 64.43,232.70 ZM 70.22 36.44 C69.00,35.59 68.00,34.43 68.00,33.87 C68.00,33.31 68.71,33.56 69.57,34.43 C70.44,35.29 71.73,36.00 72.45,36.00 C73.16,36.00 75.05,36.26 76.64,36.58 C78.86,37.02 80.18,36.57 82.27,34.63 C83.77,33.23 85.00,32.49 85.00,32.98 C85.00,33.46 83.81,34.79 82.37,35.93 C79.21,38.41 73.38,38.66 70.22,36.44 ZM 73.55 22.41 C72.54,21.67 71.32,21.30 70.85,21.59 C69.24,22.59 70.00,20.72 71.75,19.39 C74.77,17.10 78.71,17.76 82.23,21.13 C84.03,22.85 84.73,23.71 83.80,23.05 C82.76,22.31 81.20,22.13 79.80,22.61 C76.09,23.85 75.49,23.83 73.55,22.41 ZM 0.00 1.00 C0.00,0.45 0.48,0.00 1.06,0.00 C1.64,0.00 1.84,0.45 1.50,1.00 C1.16,1.55 0.68,2.00 0.44,2.00 C0.20,2.00 0.00,1.55 0.00,1.00 Z" fill="rgb(169,140,233)"/>
</g>
</svg>